<mxfile host="app.diagrams.net" modified="2022-03-29T20:56:16.771Z" agent="5.0 (X11)" etag="GhfQBKpeiOcsjqA0XahP" version="17.2.4" type="github">
  <diagram id="V_RyGB2SNdtQhxCIIN5D" name="Page-1">
    <mxGraphModel dx="1056" dy="510" grid="1" gridSize="10" guides="1" tooltips="1" connect="1" arrows="1" fold="1" page="1" pageScale="1" pageWidth="850" pageHeight="1100" math="0" shadow="0">
      <root>
        <mxCell id="0" />
        <mxCell id="1" parent="0" />
        <mxCell id="xLFS7vNpQWe_BlD2UNC_-27" value="" style="rounded=0;whiteSpace=wrap;html=1;fillColor=none;" parent="1" vertex="1">
          <mxGeometry x="140" y="100" width="610" height="390" as="geometry" />
        </mxCell>
        <mxCell id="xLFS7vNpQWe_BlD2UNC_-6" style="edgeStyle=orthogonalEdgeStyle;rounded=0;orthogonalLoop=1;jettySize=auto;html=1;entryX=0;entryY=0.5;entryDx=0;entryDy=0;" parent="1" source="xLFS7vNpQWe_BlD2UNC_-1" target="xLFS7vNpQWe_BlD2UNC_-4" edge="1">
          <mxGeometry relative="1" as="geometry" />
        </mxCell>
        <mxCell id="xLFS7vNpQWe_BlD2UNC_-7" style="edgeStyle=orthogonalEdgeStyle;rounded=0;orthogonalLoop=1;jettySize=auto;html=1;entryX=0;entryY=0.5;entryDx=0;entryDy=0;" parent="1" source="xLFS7vNpQWe_BlD2UNC_-1" target="xLFS7vNpQWe_BlD2UNC_-2" edge="1">
          <mxGeometry relative="1" as="geometry" />
        </mxCell>
        <mxCell id="xLFS7vNpQWe_BlD2UNC_-8" style="edgeStyle=orthogonalEdgeStyle;rounded=0;orthogonalLoop=1;jettySize=auto;html=1;entryX=0;entryY=0.5;entryDx=0;entryDy=0;" parent="1" source="xLFS7vNpQWe_BlD2UNC_-1" target="xLFS7vNpQWe_BlD2UNC_-5" edge="1">
          <mxGeometry relative="1" as="geometry" />
        </mxCell>
        <mxCell id="xLFS7vNpQWe_BlD2UNC_-1" value="收集的地标" style="rounded=1;whiteSpace=wrap;html=1;fillColor=#fff2cc;strokeColor=#d6b656;" parent="1" vertex="1">
          <mxGeometry x="160" y="270" width="110" height="50" as="geometry" />
        </mxCell>
        <mxCell id="xLFS7vNpQWe_BlD2UNC_-15" style="edgeStyle=orthogonalEdgeStyle;rounded=0;orthogonalLoop=1;jettySize=auto;html=1;entryX=0;entryY=0.5;entryDx=0;entryDy=0;" parent="1" source="xLFS7vNpQWe_BlD2UNC_-2" target="xLFS7vNpQWe_BlD2UNC_-14" edge="1">
          <mxGeometry relative="1" as="geometry" />
        </mxCell>
        <mxCell id="xLFS7vNpQWe_BlD2UNC_-17" style="edgeStyle=orthogonalEdgeStyle;rounded=0;orthogonalLoop=1;jettySize=auto;html=1;entryX=0;entryY=0.5;entryDx=0;entryDy=0;" parent="1" source="xLFS7vNpQWe_BlD2UNC_-2" target="xLFS7vNpQWe_BlD2UNC_-16" edge="1">
          <mxGeometry relative="1" as="geometry" />
        </mxCell>
        <mxCell id="boKA2lNCDkdZOMdKHYmO-2" style="edgeStyle=orthogonalEdgeStyle;rounded=0;orthogonalLoop=1;jettySize=auto;html=1;entryX=0;entryY=0.5;entryDx=0;entryDy=0;" edge="1" parent="1" source="xLFS7vNpQWe_BlD2UNC_-2" target="xLFS7vNpQWe_BlD2UNC_-12">
          <mxGeometry relative="1" as="geometry" />
        </mxCell>
        <mxCell id="xLFS7vNpQWe_BlD2UNC_-2" value="基于网页" style="rounded=1;whiteSpace=wrap;html=1;fillColor=#fff2cc;strokeColor=#d6b656;" parent="1" vertex="1">
          <mxGeometry x="350" y="270" width="130" height="50" as="geometry" />
        </mxCell>
        <mxCell id="xLFS7vNpQWe_BlD2UNC_-4" value="公开探针" style="rounded=1;whiteSpace=wrap;html=1;fillColor=#d5e8d4;strokeColor=#82b366;" parent="1" vertex="1">
          <mxGeometry x="350" y="120" width="130" height="50" as="geometry" />
        </mxCell>
        <mxCell id="xLFS7vNpQWe_BlD2UNC_-5" value="基于 DNS hostname" style="rounded=1;whiteSpace=wrap;html=1;fillColor=#f8cecc;strokeColor=#b85450;" parent="1" vertex="1">
          <mxGeometry x="350" y="400" width="130" height="50" as="geometry" />
        </mxCell>
        <mxCell id="xLFS7vNpQWe_BlD2UNC_-12" value="摄像头网站" style="rounded=1;whiteSpace=wrap;html=1;fillColor=#d5e8d4;strokeColor=#82b366;" parent="1" vertex="1">
          <mxGeometry x="540" y="190" width="110" height="50" as="geometry" />
        </mxCell>
        <mxCell id="xLFS7vNpQWe_BlD2UNC_-14" value="Looking Glass" style="rounded=1;whiteSpace=wrap;html=1;fillColor=#fff2cc;strokeColor=#d6b656;" parent="1" vertex="1">
          <mxGeometry x="540" y="270" width="110" height="50" as="geometry" />
        </mxCell>
        <mxCell id="xLFS7vNpQWe_BlD2UNC_-16" value="学校政府网站" style="rounded=1;whiteSpace=wrap;html=1;fillColor=#f8cecc;strokeColor=#b85450;" parent="1" vertex="1">
          <mxGeometry x="540" y="350" width="110" height="50" as="geometry" />
        </mxCell>
        <mxCell id="xLFS7vNpQWe_BlD2UNC_-18" value="" style="rounded=1;whiteSpace=wrap;html=1;fillColor=#d5e8d4;strokeColor=#82b366;" parent="1" vertex="1">
          <mxGeometry x="520" y="424" width="50" height="20" as="geometry" />
        </mxCell>
        <mxCell id="xLFS7vNpQWe_BlD2UNC_-19" value="" style="rounded=1;whiteSpace=wrap;html=1;fillColor=#fff2cc;strokeColor=#d6b656;" parent="1" vertex="1">
          <mxGeometry x="630" y="423" width="50" height="20" as="geometry" />
        </mxCell>
        <mxCell id="xLFS7vNpQWe_BlD2UNC_-20" style="edgeStyle=orthogonalEdgeStyle;rounded=0;orthogonalLoop=1;jettySize=auto;html=1;exitX=0.5;exitY=1;exitDx=0;exitDy=0;" parent="1" source="xLFS7vNpQWe_BlD2UNC_-18" target="xLFS7vNpQWe_BlD2UNC_-18" edge="1">
          <mxGeometry relative="1" as="geometry" />
        </mxCell>
        <mxCell id="xLFS7vNpQWe_BlD2UNC_-21" value="" style="rounded=1;whiteSpace=wrap;html=1;fillColor=#f8cecc;strokeColor=#b85450;" parent="1" vertex="1">
          <mxGeometry x="520" y="454" width="50" height="20" as="geometry" />
        </mxCell>
        <mxCell id="xLFS7vNpQWe_BlD2UNC_-22" value="已处理" style="text;html=1;strokeColor=none;fillColor=none;align=center;verticalAlign=middle;whiteSpace=wrap;rounded=0;" parent="1" vertex="1">
          <mxGeometry x="568" y="420" width="60" height="30" as="geometry" />
        </mxCell>
        <mxCell id="xLFS7vNpQWe_BlD2UNC_-23" value="正在处理" style="text;html=1;strokeColor=none;fillColor=none;align=center;verticalAlign=middle;whiteSpace=wrap;rounded=0;" parent="1" vertex="1">
          <mxGeometry x="680" y="419" width="60" height="30" as="geometry" />
        </mxCell>
        <mxCell id="xLFS7vNpQWe_BlD2UNC_-24" value="尚未处理" style="text;html=1;strokeColor=none;fillColor=none;align=center;verticalAlign=middle;whiteSpace=wrap;rounded=0;" parent="1" vertex="1">
          <mxGeometry x="574" y="449" width="60" height="30" as="geometry" />
        </mxCell>
      </root>
    </mxGraphModel>
  </diagram>
</mxfile>
